<svg id="svg" version="1.1" xmlns="http://www.w3.org/2000/svg" xmlns:xlink="http://www.w3.org/1999/xlink" width="53.87" height="43.61" viewBox="0, 0, 400,400"><g id="svgg"><path id="path0" d="M83.660 164.300 C 83.848 173.273,85.215 176.437,90.568 180.283 C 92.375 181.580,93.702 182.105,98.000 183.218 C 98.770 183.418,108.799 183.585,120.286 183.590 C 143.922 183.601,141.693 183.247,142.121 187.057 C 142.248 188.188,142.723 189.805,143.176 190.651 C 143.629 191.496,144.000 192.352,144.000 192.553 C 144.000 197.381,161.868 210.294,171.200 212.209 C 171.970 212.367,173.078 212.740,173.662 213.039 C 174.245 213.337,176.030 213.784,177.628 214.031 C 179.225 214.279,181.251 214.736,182.129 215.045 C 186.989 216.760,213.011 216.760,217.871 215.045 C 218.749 214.736,220.775 214.279,222.372 214.031 C 223.970 213.784,225.755 213.337,226.338 213.039 C 226.922 212.740,228.030 212.367,228.800 212.209 C 231.274 211.701,242.625 206.513,243.779 205.363 C 244.020 205.122,244.934 204.469,245.809 203.912 C 249.776 201.386,255.012 195.368,256.219 191.946 C 256.544 191.024,256.995 190.048,257.219 189.777 C 257.444 189.506,257.736 188.321,257.869 187.142 C 258.309 183.234,256.071 183.602,279.514 183.583 C 290.891 183.573,300.920 183.407,301.800 183.214 C 312.421 180.886,316.093 176.109,316.340 164.300 L 316.489 157.200 308.635 157.200 C 299.474 157.200,299.945 156.935,300.300 161.893 C 300.462 164.161,300.364 164.995,299.844 165.789 L 299.182 166.800 262.840 166.800 C 233.917 166.800,226.412 166.904,226.076 167.309 C 225.843 167.589,225.291 169.127,224.847 170.727 C 223.985 173.837,222.905 175.431,220.259 177.495 C 219.347 178.207,218.373 178.980,218.097 179.214 C 217.820 179.447,216.845 179.902,215.931 180.224 C 215.017 180.547,214.021 181.017,213.717 181.269 C 210.388 184.032,190.432 183.926,186.000 181.122 C 185.450 180.774,184.325 180.275,183.500 180.014 C 182.675 179.752,182.000 179.384,182.000 179.196 C 182.000 179.008,181.685 178.754,181.300 178.631 C 180.554 178.394,178.354 176.470,176.880 174.767 C 176.388 174.199,175.617 172.403,175.166 170.776 C 174.716 169.149,174.157 167.589,173.924 167.309 C 173.588 166.904,166.083 166.800,137.160 166.800 L 100.818 166.800 100.156 165.789 C 99.636 164.995,99.538 164.161,99.700 161.893 C 100.055 156.935,100.526 157.200,91.365 157.200 L 83.511 157.200 83.660 164.300 M39.216 200.000 L 39.216 218.773 50.004 218.773 C 55.937 218.773,60.772 218.644,60.748 218.486 C 60.725 218.329,60.727 216.535,60.753 214.500 L 60.800 210.800 62.900 210.784 L 65.000 210.767 65.900 208.846 C 66.725 207.085,66.800 206.344,66.800 200.000 C 66.800 193.656,66.725 192.915,65.900 191.154 L 65.000 189.233 62.900 189.216 L 60.800 189.200 60.753 185.500 C 60.727 183.465,60.725 181.671,60.748 181.514 C 60.772 181.356,55.937 181.227,50.004 181.227 L 39.216 181.227 39.216 200.000 M339.252 181.514 C 339.275 181.671,339.273 183.465,339.247 185.500 L 339.200 189.200 337.100 189.216 L 335.000 189.233 334.100 191.154 C 333.275 192.915,333.200 193.656,333.200 200.000 C 333.200 206.344,333.275 207.085,334.100 208.846 L 335.000 210.767 337.100 210.784 L 339.200 210.800 339.247 214.500 C 339.273 216.535,339.275 218.329,339.252 218.486 C 339.228 218.644,344.063 218.773,349.996 218.773 L 360.784 218.773 360.784 200.000 L 360.784 181.227 349.996 181.227 C 344.063 181.227,339.228 181.356,339.252 181.514 M100.194 259.300 C 100.072 259.795,100.026 273.790,100.091 290.400 L 100.210 320.600 101.221 322.844 C 103.528 327.964,107.644 331.377,113.176 332.757 L 116.552 333.600 200.000 333.600 L 283.448 333.600 286.824 332.757 C 292.028 331.459,296.786 327.730,298.278 323.782 C 298.565 323.022,299.062 321.725,299.382 320.900 C 299.983 319.353,300.339 260.550,299.757 259.033 C 299.537 258.458,290.372 258.400,199.965 258.400 L 100.415 258.400 100.194 259.300 M129.106 276.355 C 134.982 279.542,134.082 287.923,127.540 290.929 C 121.807 293.563,115.117 286.781,117.458 280.708 C 119.231 276.110,124.810 274.025,129.106 276.355 M179.106 276.355 C 184.982 279.542,184.082 287.923,177.540 290.929 C 171.807 293.563,165.117 286.781,167.458 280.708 C 169.231 276.110,174.810 274.025,179.106 276.355 M229.106 276.355 C 234.982 279.542,234.082 287.923,227.540 290.929 C 221.807 293.563,215.117 286.781,217.458 280.708 C 219.231 276.110,224.810 274.025,229.106 276.355 M279.106 276.355 C 284.982 279.542,284.082 287.923,277.540 290.929 C 271.807 293.563,265.117 286.781,267.458 280.708 C 269.231 276.110,274.810 274.025,279.106 276.355 M153.516 276.138 C 154.942 276.655,157.470 279.544,157.862 281.104 C 159.559 287.864,152.645 293.608,146.535 290.514 C 138.748 286.571,141.293 275.661,150.000 275.661 C 151.210 275.661,152.792 275.876,153.516 276.138 M203.516 276.138 C 204.942 276.655,207.470 279.544,207.862 281.104 C 209.559 287.864,202.645 293.608,196.535 290.514 C 188.748 286.571,191.293 275.661,200.000 275.661 C 201.210 275.661,202.792 275.876,203.516 276.138 M253.516 276.138 C 254.942 276.655,257.470 279.544,257.862 281.104 C 259.559 287.864,252.645 293.608,246.535 290.514 C 238.748 286.571,241.293 275.661,250.000 275.661 C 251.210 275.661,252.792 275.876,253.516 276.138 M126.831 300.395 C 129.274 300.416,133.200 305.212,133.200 308.176 C 133.200 316.795,120.689 319.292,117.625 311.284 C 115.542 305.842,120.229 299.177,125.400 300.227 C 125.840 300.316,126.484 300.392,126.831 300.395 M253.922 301.346 C 260.676 306.027,258.628 315.387,250.673 316.193 C 244.392 316.829,147.445 316.225,146.200 315.541 C 141.407 312.910,140.542 306.696,144.428 302.810 C 147.337 299.902,144.016 300.060,200.634 300.133 L 252.269 300.200 253.922 301.346 M276.831 300.395 C 279.274 300.416,283.200 305.212,283.200 308.176 C 283.200 316.795,270.689 319.292,267.625 311.284 C 265.542 305.842,270.229 299.177,275.400 300.227 C 275.840 300.316,276.484 300.392,276.831 300.395 " stroke="none" fill="#39484d" fill-rule="evenodd"></path><path id="path1" d="M65.201 173.700 C 65.203 189.484,65.238 190.257,66.001 191.510 C 67.209 193.490,67.209 206.510,66.001 208.490 C 65.213 209.784,65.203 210.544,65.201 272.154 L 65.200 334.508 66.200 335.435 C 67.035 336.209,67.200 336.728,67.200 338.581 C 67.200 340.681,67.254 340.800,68.200 340.800 C 69.133 340.800,69.200 340.933,69.200 342.800 C 69.200 344.667,69.267 344.800,70.200 344.800 C 71.000 344.800,71.200 345.000,71.200 345.800 C 71.200 346.600,71.400 346.800,72.200 346.800 C 73.000 346.800,73.200 347.000,73.200 347.800 C 73.200 348.600,73.400 348.800,74.200 348.800 C 75.000 348.800,75.200 349.000,75.200 349.800 C 75.200 350.600,75.400 350.800,76.200 350.800 C 77.000 350.800,77.200 351.000,77.200 351.800 C 77.200 352.600,77.400 352.800,78.200 352.800 C 79.000 352.800,79.200 353.000,79.200 353.800 C 79.200 354.600,79.400 354.800,80.200 354.800 C 80.750 354.800,81.200 354.967,81.200 355.171 C 81.200 356.194,82.551 356.800,84.829 356.800 C 87.091 356.800,87.200 356.846,87.200 357.800 L 87.200 358.800 91.200 358.800 L 95.200 358.800 95.200 359.800 L 95.200 360.800 200.000 360.800 L 304.800 360.800 304.800 359.800 L 304.800 358.800 308.800 358.800 L 312.800 358.800 312.800 357.800 C 312.800 356.884,312.948 356.800,314.574 356.800 C 316.780 356.800,318.400 356.212,318.400 355.410 C 318.400 354.999,318.791 354.800,319.600 354.800 C 320.613 354.800,320.800 354.644,320.800 353.800 C 320.800 353.000,321.000 352.800,321.800 352.800 C 322.600 352.800,322.800 352.600,322.800 351.800 C 322.800 351.000,323.000 350.800,323.800 350.800 C 324.600 350.800,324.800 350.600,324.800 349.800 C 324.800 349.000,325.000 348.800,325.800 348.800 C 326.600 348.800,326.800 348.600,326.800 347.800 C 326.800 347.000,327.000 346.800,327.800 346.800 C 328.600 346.800,328.800 346.600,328.800 345.800 C 328.800 345.000,329.000 344.800,329.800 344.800 C 330.733 344.800,330.800 344.667,330.800 342.800 C 330.800 340.933,330.867 340.800,331.800 340.800 C 332.778 340.800,332.800 340.733,332.800 337.800 C 332.800 334.867,332.822 334.800,333.800 334.800 L 334.800 334.800 334.799 272.300 C 334.797 210.544,334.787 209.784,333.999 208.490 C 333.279 207.310,333.200 206.472,333.200 200.000 C 333.200 193.528,333.279 192.690,333.999 191.510 C 334.762 190.257,334.797 189.484,334.799 173.700 L 334.800 157.200 325.645 157.200 L 316.489 157.200 316.340 164.300 C 316.093 176.109,312.421 180.886,301.800 183.214 C 300.920 183.407,290.891 183.573,279.514 183.583 C 256.071 183.602,258.309 183.234,257.869 187.142 C 257.736 188.321,257.444 189.506,257.219 189.777 C 256.995 190.048,256.544 191.024,256.219 191.946 C 255.012 195.368,249.776 201.386,245.809 203.912 C 244.934 204.469,244.020 205.122,243.779 205.363 C 242.625 206.513,231.274 211.701,228.800 212.209 C 228.030 212.367,226.922 212.740,226.338 213.039 C 225.755 213.337,223.970 213.784,222.372 214.031 C 220.775 214.279,218.749 214.736,217.871 215.045 C 213.011 216.760,186.989 216.760,182.129 215.045 C 181.251 214.736,179.225 214.279,177.628 214.031 C 176.030 213.784,174.245 213.337,173.662 213.039 C 173.078 212.740,171.970 212.367,171.200 212.209 C 161.868 210.294,144.000 197.381,144.000 192.553 C 144.000 192.352,143.629 191.496,143.176 190.651 C 142.723 189.805,142.248 188.188,142.121 187.057 C 141.693 183.247,143.922 183.601,120.286 183.590 C 108.799 183.585,98.770 183.418,98.000 183.218 C 93.702 182.105,92.375 181.580,90.568 180.283 C 85.215 176.437,83.848 173.273,83.660 164.300 L 83.511 157.200 74.355 157.200 L 65.200 157.200 65.201 173.700 M296.271 234.637 C 296.892 235.097,297.940 236.267,298.600 237.237 L 299.800 239.000 299.927 248.126 C 300.008 253.880,299.905 257.432,299.650 257.740 C 299.397 258.045,299.384 258.446,299.617 258.813 C 300.265 259.838,300.074 319.122,299.417 320.800 C 299.115 321.570,298.618 322.867,298.312 323.682 C 296.794 327.723,292.083 331.445,286.824 332.757 L 283.448 333.600 200.000 333.600 L 116.552 333.600 113.176 332.757 C 107.644 331.377,103.528 327.964,101.221 322.844 L 100.210 320.600 100.095 290.092 C 100.023 270.761,100.124 259.316,100.372 258.853 C 100.630 258.371,100.624 257.984,100.354 257.714 C 100.092 257.452,99.991 254.024,100.072 248.152 C 100.211 238.191,100.367 237.526,103.132 235.053 C 104.650 233.695,105.944 233.677,200.871 233.739 L 295.141 233.800 296.271 234.637 " stroke="none" fill="#fbc305" fill-rule="evenodd"></path><path id="path2" d="M99.365 98.500 C 99.533 156.965,99.659 164.507,100.481 165.498 C 100.809 165.893,108.550 166.008,136.949 166.040 C 156.777 166.062,173.445 166.204,173.989 166.355 C 175.021 166.643,175.122 166.892,175.995 171.281 C 176.424 173.435,179.970 178.000,181.215 178.000 C 181.395 178.000,181.792 178.249,182.097 178.554 C 183.850 180.307,194.949 183.167,200.000 183.167 C 205.051 183.167,216.150 180.307,217.903 178.554 C 218.208 178.249,218.605 178.000,218.785 178.000 C 220.030 178.000,223.576 173.435,224.005 171.281 C 224.878 166.892,224.979 166.643,226.011 166.355 C 226.555 166.204,243.223 166.062,263.051 166.040 C 291.450 166.008,299.191 165.893,299.519 165.498 C 300.341 164.507,300.467 156.965,300.635 98.500 L 300.805 39.200 200.000 39.200 L 99.195 39.200 99.365 98.500 M265.669 75.462 C 266.820 76.504,266.782 90.967,265.626 91.586 C 264.547 92.164,135.453 92.164,134.374 91.586 C 133.276 90.999,133.177 76.730,134.262 75.531 C 135.241 74.449,264.474 74.381,265.669 75.462 M233.032 108.976 C 234.068 110.392,233.836 123.262,232.758 124.238 C 231.527 125.352,135.560 125.649,134.337 124.543 C 133.241 123.551,133.208 109.070,134.300 108.429 C 135.813 107.540,232.374 108.076,233.032 108.976 M150.300 258.300 C 177.635 258.357,222.365 258.357,249.700 258.300 C 277.035 258.243,254.670 258.197,200.000 258.197 C 145.330 258.197,122.965 258.243,150.300 258.300 M121.790 276.024 C 121.124 276.218,120.017 276.967,119.328 277.688 C 113.243 284.066,120.427 294.472,128.206 290.548 C 137.695 285.762,132.071 273.033,121.790 276.024 M146.507 276.130 C 145.257 276.585,143.412 278.474,142.461 280.274 C 141.583 281.938,142.163 287.600,143.212 287.600 C 143.396 287.600,143.662 287.964,143.803 288.409 C 144.125 289.424,148.351 291.600,150.000 291.600 C 151.649 291.600,155.875 289.424,156.197 288.409 C 156.338 287.964,156.604 287.600,156.788 287.600 C 157.357 287.600,158.000 285.179,157.999 283.040 C 157.995 277.612,152.133 274.087,146.507 276.130 M171.790 276.024 C 171.124 276.218,170.017 276.967,169.328 277.688 C 163.243 284.066,170.427 294.472,178.206 290.548 C 187.695 285.762,182.071 273.033,171.790 276.024 M196.507 276.130 C 195.257 276.585,193.412 278.474,192.461 280.274 C 191.583 281.938,192.163 287.600,193.212 287.600 C 193.396 287.600,193.662 287.964,193.803 288.409 C 194.125 289.424,198.351 291.600,200.000 291.600 C 201.649 291.600,205.875 289.424,206.197 288.409 C 206.338 287.964,206.604 287.600,206.788 287.600 C 207.357 287.600,208.000 285.179,207.999 283.040 C 207.995 277.612,202.133 274.087,196.507 276.130 M221.790 276.024 C 221.124 276.218,220.017 276.967,219.328 277.688 C 213.243 284.066,220.427 294.472,228.206 290.548 C 237.695 285.762,232.071 273.033,221.790 276.024 M246.507 276.130 C 245.257 276.585,243.412 278.474,242.461 280.274 C 241.583 281.938,242.163 287.600,243.212 287.600 C 243.396 287.600,243.662 287.964,243.803 288.409 C 244.125 289.424,248.351 291.600,250.000 291.600 C 251.649 291.600,255.875 289.424,256.197 288.409 C 256.338 287.964,256.604 287.600,256.788 287.600 C 257.357 287.600,258.000 285.179,257.999 283.040 C 257.995 277.612,252.133 274.087,246.507 276.130 M271.790 276.024 C 271.124 276.218,270.017 276.967,269.328 277.688 C 263.243 284.066,270.427 294.472,278.206 290.548 C 287.695 285.762,282.071 273.033,271.790 276.024 M123.516 300.417 C 112.785 302.238,116.128 317.544,126.909 315.947 C 130.711 315.383,134.893 308.789,132.848 306.580 C 132.655 306.371,132.281 305.524,132.016 304.697 C 131.130 301.925,126.972 299.831,123.516 300.417 M148.154 300.376 C 141.225 302.051,139.912 310.990,145.971 315.239 L 147.341 316.200 197.371 316.324 C 224.887 316.392,248.732 316.329,250.360 316.184 C 258.555 315.454,260.798 306.111,253.922 301.346 L 252.269 300.200 200.834 300.137 C 172.545 300.103,148.839 300.210,148.154 300.376 M273.516 300.417 C 262.785 302.238,266.128 317.544,276.909 315.947 C 280.711 315.383,284.893 308.789,282.848 306.580 C 282.655 306.371,282.281 305.524,282.016 304.697 C 281.130 301.925,276.972 299.831,273.516 300.417 " stroke="none" fill="#94cbfa" fill-rule="evenodd"></path><path id="path3" d="M105.284 233.992 C 103.705 234.368,102.651 235.258,101.248 237.400 L 100.200 239.000 100.200 248.400 L 100.200 257.800 200.000 257.800 L 299.800 257.800 299.800 248.400 L 299.800 239.000 298.600 237.237 C 297.940 236.267,296.892 235.097,296.271 234.637 L 295.141 233.800 200.871 233.739 C 149.022 233.705,106.008 233.819,105.284 233.992 " stroke="none" fill="#fcecb3" fill-rule="evenodd"></path><path id="path4" d="M134.262 75.531 C 133.177 76.730,133.276 90.999,134.374 91.586 C 135.453 92.164,264.547 92.164,265.626 91.586 C 266.782 90.967,266.820 76.504,265.669 75.462 C 264.474 74.381,135.241 74.449,134.262 75.531 M134.300 108.429 C 133.208 109.070,133.241 123.551,134.337 124.543 C 135.560 125.649,231.527 125.352,232.758 124.238 C 233.836 123.262,234.068 110.392,233.032 108.976 C 232.374 108.076,135.813 107.540,134.300 108.429 M99.676 162.611 C 99.624 164.249,99.800 165.307,100.223 165.911 L 100.845 166.800 137.174 166.800 C 166.086 166.800,173.588 166.904,173.924 167.309 C 174.157 167.589,174.716 169.149,175.166 170.776 C 175.617 172.403,176.388 174.199,176.880 174.767 C 178.354 176.470,180.554 178.394,181.300 178.631 C 181.685 178.754,182.000 179.008,182.000 179.196 C 182.000 179.384,182.675 179.752,183.500 180.014 C 184.325 180.275,185.450 180.774,186.000 181.122 C 190.432 183.926,210.388 184.032,213.717 181.269 C 214.021 181.017,215.017 180.547,215.931 180.224 C 216.845 179.902,217.820 179.447,218.097 179.214 C 218.373 178.980,219.347 178.207,220.259 177.495 C 222.905 175.431,223.985 173.837,224.847 170.727 C 225.291 169.127,225.843 167.589,226.076 167.309 C 226.412 166.904,233.914 166.800,262.826 166.800 L 299.155 166.800 299.777 165.911 C 300.200 165.307,300.376 164.249,300.324 162.611 L 300.249 160.200 300.102 162.586 C 300.021 163.899,299.763 165.204,299.528 165.486 C 299.187 165.897,291.883 166.008,263.051 166.040 C 243.223 166.062,226.555 166.204,226.011 166.355 C 224.979 166.643,224.878 166.892,224.005 171.281 C 223.576 173.435,220.030 178.000,218.785 178.000 C 218.605 178.000,218.208 178.249,217.903 178.554 C 216.150 180.307,205.051 183.167,200.000 183.167 C 194.949 183.167,183.850 180.307,182.097 178.554 C 181.792 178.249,181.395 178.000,181.215 178.000 C 179.970 178.000,176.424 173.435,175.995 171.281 C 175.122 166.892,175.021 166.643,173.989 166.355 C 173.445 166.204,156.777 166.062,136.949 166.040 C 108.117 166.008,100.813 165.897,100.472 165.486 C 100.237 165.204,99.979 163.899,99.898 162.586 L 99.751 160.200 99.676 162.611 " stroke="none" fill="#1e76d5" fill-rule="evenodd"></path></g></svg>